<svg width="20" height="20" viewBox="0 0 20 20" fill="none" xmlns="http://www.w3.org/2000/svg">
<path d="M5.79004 1.15234V2.40234H1.19531V18.8477H13.6953V16.958C13.8345 16.9706 13.9695 16.9971 14.112 16.9971C16.6992 16.9971 18.806 14.8903 18.806 12.3031C18.806 9.71583 16.6992 7.6107 14.112 7.6107C13.9698 7.6107 13.8342 7.63405 13.6953 7.64651V2.40237H9.12012V1.15237L5.79004 1.15234ZM2.02865 3.23568H4.11198V4.90234H10.7786V3.23568H12.862V7.79622C11.286 8.2355 10.0369 9.46587 9.59538 11.0417H6.72266V11.875H9.43913C9.42624 12.0163 9.41797 12.1584 9.41797 12.3031C9.41797 13.3069 9.73801 14.2358 10.2773 15H6.72266V15.8333H11.0293C11.5501 16.2888 12.1785 16.6148 12.862 16.8066V18.0143H2.02865V3.23568ZM13.6953 9.69401H14.5286V12.194H17.0286V13.0273H13.6953V9.69401Z" fill="#626669"/>
<path d="M3.2793 10.2085V12.7085H5.88997V10.2085H3.2793Z" fill="#626669"/>
<path d="M3.2793 6.25V8.75H5.88997V6.25H3.2793Z" fill="#626669"/>
<path d="M3.2793 14.1665V16.6665H5.88997V14.1665H3.2793Z" fill="#626669"/>
<path d="M6.72266 7.0835C6.72266 7.36127 6.72266 7.63905 6.72266 7.91683C8.38932 7.91683 10.056 7.91683 11.7227 7.91683C11.7227 7.63905 11.7227 7.36127 11.7227 7.0835C10.056 7.0835 8.38932 7.0835 6.72266 7.0835Z" fill="#626669"/>
</svg>
