<svg width="37" height="21" viewBox="0 0 37 21" fill="none" xmlns="http://www.w3.org/2000/svg">
<path d="M16.8416 16.0275C20.431 12.0468 21.9128 11.883 26.0172 14.7879C27.2109 15.6317 28.3705 16.5404 29.6274 17.2725C31.8034 18.5409 33.5909 17.5438 33.6634 14.9922C33.7453 12.1054 33.7329 9.21216 33.6562 6.32426C33.5816 3.48638 31.6708 2.47764 29.3694 4.11951C22.5169 9.01424 15.7256 13.992 8.88863 18.9101C5.94475 21.0255 3.31173 20.8435 1.37091 18.493C-0.368895 16.3797 -0.487024 4.68027 1.2134 2.49893C2.74596 0.53252 5.20593 -0.0548488 7.39441 1.17415C8.65929 1.89672 9.86461 2.72413 10.9984 3.64812C13.4749 5.64006 16.0312 6.98186 19.5989 4.78349C16.338 8.95678 14.2935 9.28664 10.7134 6.68286C9.39119 5.72519 8.10214 4.70475 6.72087 3.84178C4.69818 2.57873 2.94077 3.53427 2.85891 5.96993C2.76358 8.76844 2.71798 11.5787 2.85891 14.3761C2.91072 15.3742 3.35318 16.8926 4.02465 17.1831C4.89299 17.5577 6.3955 17.2821 7.23691 16.6958C13.9267 12.0139 20.5388 7.20957 27.1415 2.39677C29.0917 0.976238 31.0107 -0.271918 33.4624 1.08052C35.9141 2.43295 36.3887 4.709 36.3079 7.32449C36.227 9.93998 36.3783 12.5799 36.2985 15.205C36.1617 19.6837 32.0501 21.8938 28.2865 19.5549C27.4794 19.0626 26.6996 18.5244 25.9509 17.9429C23.2443 15.7988 20.4984 13.9026 16.8416 16.0275Z" fill="#4FCDBA"/>
</svg>
